<svg xmlns="http://www.w3.org/2000/svg" xmlns:xlink="http://www.w3.org/1999/xlink" width="600" zoomAndPan="magnify" viewBox="0 0 450 899.99999" height="1200" preserveAspectRatio="xMidYMid meet" version="1.0"><defs><clipPath id="ab66b7812b"><path d="M 115.210938 407.074219 L 333 407.074219 L 333 899.824219 L 115.210938 899.824219 Z M 115.210938 407.074219 " clip-rule="nonzero"/></clipPath></defs><rect x="-45" width="540" fill="#ffffff" y="-89.999999" height="1079.999988" fill-opacity="1"/><rect x="-45" width="540" fill="#cb6ce6" y="-89.999999" height="1079.999988" fill-opacity="1"/><path fill="#000000" d="M 273.359375 604.375 C 273.324219 603.597656 272.828125 602.867188 272.132812 602.523438 C 271.585938 602.257812 271.539062 601.398438 271.984375 601 C 272.582031 600.488281 273.589844 600.867188 273.988281 601.546875 C 274.386719 602.222656 274.351562 603.066406 274.285156 603.859375 C 274.167969 605.347656 273.9375 607.019531 272.777344 607.960938 C 272.828125 606.753906 273.011719 605.53125 273.359375 604.375 Z M 273.359375 604.375 " fill-opacity="1" fill-rule="nonzero"/><path fill="#000000" d="M 267.199219 605.019531 C 266.074219 606.324219 266.457031 608.441406 265.414062 609.8125 C 265.265625 607.546875 265.84375 605.234375 267.035156 603.28125 C 267.25 602.933594 267.515625 602.570312 267.878906 602.390625 C 268.375 602.140625 269.070312 602.339844 269.335938 602.835938 C 269.585938 603.332031 269.285156 604.042969 268.738281 604.140625 C 268.144531 604.242188 267.597656 604.554688 267.199219 605.019531 Z M 267.199219 605.019531 " fill-opacity="1" fill-rule="nonzero"/><path fill="#000000" d="M 264.933594 614.230469 C 265.148438 614.640625 264.933594 615.171875 264.601562 615.5 C 264.269531 615.832031 263.855469 616.082031 263.542969 616.410156 C 262.515625 617.519531 262.8125 619.453125 261.753906 620.527344 C 261.65625 618.742188 261.9375 616.941406 262.597656 615.285156 C 262.796875 614.773438 263.046875 614.261719 263.507812 613.964844 C 263.972656 613.683594 264.683594 613.75 264.933594 614.230469 Z M 264.933594 614.230469 " fill-opacity="1" fill-rule="nonzero"/><path fill="#000000" d="M 267.613281 622.828125 C 267.679688 622.695312 267.828125 622.644531 267.980469 622.578125 C 269.238281 622.082031 270.328125 621.15625 271.042969 620 C 271.554688 620.246094 271.734375 620.925781 271.554688 621.472656 C 271.371094 622.015625 270.910156 622.414062 270.429688 622.695312 C 269.816406 623.058594 269.136719 623.304688 268.441406 623.390625 C 268.027344 623.457031 267.414062 623.191406 267.613281 622.828125 Z M 267.613281 622.828125 " fill-opacity="1" fill-rule="nonzero"/><path fill="#000000" d="M 266.289062 621.023438 C 266.71875 620.265625 267.152344 619.503906 267.566406 618.726562 C 267.761719 618.363281 268.390625 618.460938 268.609375 618.824219 C 268.824219 619.1875 268.722656 619.652344 268.542969 620.03125 C 268.175781 620.84375 267.480469 621.488281 266.652344 621.816406 C 266.570312 621.851562 266.472656 621.882812 266.371094 621.867188 C 266.042969 621.800781 266.125 621.304688 266.289062 621.023438 Z M 266.289062 621.023438 " fill-opacity="1" fill-rule="nonzero"/><path fill="#000000" d="M 277.28125 619.421875 C 276.753906 619.949219 276.238281 620.480469 275.710938 621.007812 C 275.445312 621.273438 274.949219 620.976562 274.914062 620.59375 C 274.882812 620.230469 275.164062 619.898438 275.460938 619.667969 C 275.757812 619.4375 276.089844 619.253906 276.304688 618.941406 C 276.652344 618.394531 276.667969 617.453125 277.316406 617.402344 C 277.761719 617.371094 278.058594 617.898438 277.992188 618.328125 C 277.910156 618.757812 277.578125 619.105469 277.28125 619.421875 Z M 277.28125 619.421875 " fill-opacity="1" fill-rule="nonzero"/><path fill="#000000" d="M 284.070312 612.210938 C 284.433594 612.277344 284.632812 612.707031 284.566406 613.070312 C 284.515625 613.433594 284.269531 613.75 284.035156 614.03125 C 283.457031 614.726562 282.84375 615.371094 282.183594 615.980469 C 281.867188 615.75 281.933594 615.269531 282.148438 614.941406 C 282.363281 614.625 282.679688 614.378906 282.859375 614.046875 C 283.058594 613.683594 283.058594 613.269531 283.191406 612.890625 C 283.324219 612.507812 283.671875 612.128906 284.070312 612.210938 Z M 284.070312 612.210938 " fill-opacity="1" fill-rule="nonzero"/><path fill="#000000" d="M 274.449219 609.433594 C 274.699219 609.597656 274.699219 609.960938 274.648438 610.261719 C 274.417969 611.632812 273.65625 612.921875 272.53125 613.765625 C 272.25 613.402344 272.414062 612.855469 272.679688 612.492188 C 272.945312 612.113281 273.308594 611.78125 273.441406 611.335938 C 273.558594 610.90625 273.441406 610.457031 273.523438 610.027344 C 273.605469 609.597656 274.101562 609.183594 274.449219 609.433594 Z M 274.449219 609.433594 " fill-opacity="1" fill-rule="nonzero"/><path fill="#000000" d="M 264.121094 621.867188 C 263.808594 621.785156 263.65625 621.421875 263.574219 621.105469 C 263.277344 619.984375 263.144531 618.542969 264.089844 617.851562 C 264.699219 618.113281 264.667969 618.972656 264.550781 619.636719 C 264.402344 620.378906 264.253906 621.125 264.121094 621.867188 Z M 264.121094 621.867188 " fill-opacity="1" fill-rule="nonzero"/><path fill="#000000" d="M 266.175781 619.371094 C 265.859375 619.371094 265.792969 618.941406 265.828125 618.628906 C 265.957031 617.503906 266.074219 616.378906 266.207031 615.253906 C 266.222656 615.089844 266.289062 614.875 266.472656 614.855469 C 266.554688 614.855469 266.621094 614.90625 266.671875 614.957031 C 267.300781 615.5 267.167969 616.476562 266.96875 617.289062 C 266.851562 617.800781 266.71875 618.328125 266.605469 618.84375 C 266.539062 619.074219 266.421875 619.355469 266.175781 619.371094 Z M 266.175781 619.371094 " fill-opacity="1" fill-rule="nonzero"/><path fill="#000000" d="M 291.21875 597.777344 C 291.136719 598.039062 291.054688 598.320312 290.839844 598.503906 C 290.625 598.683594 290.242188 598.667969 290.128906 598.40625 C 290.0625 598.238281 290.128906 598.074219 290.195312 597.910156 C 290.542969 597.066406 291.003906 596.253906 291.136719 595.363281 C 291.269531 594.46875 290.972656 593.425781 290.160156 593.015625 C 290.175781 592.238281 291.253906 591.722656 291.867188 592.203125 C 292.527344 592.714844 292.363281 593.726562 292.128906 594.519531 C 291.832031 595.609375 291.519531 596.703125 291.21875 597.777344 Z M 291.21875 597.777344 " fill-opacity="1" fill-rule="nonzero"/><g clip-path="url(#ab66b7812b)"><path fill="#000000" d="M 199.429688 545.757812 C 205.71875 526.179688 220.21875 509.363281 238.679688 500.234375 C 257.136719 491.125 279.316406 489.816406 298.71875 496.695312 C 290.65625 495.488281 282.097656 498.382812 276.421875 504.21875 C 270.378906 510.421875 261.769531 514.074219 253.113281 514.089844 C 247.285156 514.109375 241.523438 512.570312 235.699219 512.75 C 219.738281 513.246094 206.628906 526.871094 201.5625 542.003906 C 196.5 557.132812 197.773438 573.535156 199.097656 589.425781 C 202.507812 576.628906 210.238281 565.035156 220.734375 556.949219 C 196.632812 577.007812 194.445312 618.082031 216.296875 640.570312 C 227.769531 652.375 221.875 671.589844 220.949219 688.023438 C 220.105469 702.859375 224.210938 717.9375 232.4375 730.324219 C 230.863281 699.816406 237.519531 668.910156 251.523438 641.742188 C 246.144531 636.105469 237.203125 634.171875 229.96875 637.097656 C 229.539062 627.472656 233.664062 617.734375 240.863281 611.335938 C 233.132812 608.6875 227.421875 600.984375 227.140625 592.832031 C 226.925781 586.980469 229.707031 580.777344 234.9375 578.117188 C 240.167969 575.46875 247.667969 577.585938 249.71875 583.078125 C 252.914062 575.933594 256.125 568.804688 259.320312 561.664062 C 260.5625 558.902344 261.917969 555.992188 264.4375 554.273438 C 270.179688 550.371094 278.292969 555.214844 281.320312 561.449219 C 284.367188 567.699219 284.433594 574.972656 286.882812 581.472656 C 292.082031 578.5625 297.429688 575.585938 303.335938 574.859375 C 309.246094 574.113281 315.902344 576.148438 318.949219 581.257812 C 323.78125 589.394531 317.390625 599.398438 311.332031 606.65625 C 314.066406 612.011719 320.105469 614.625 325.089844 617.980469 C 330.089844 621.355469 334.691406 627.390625 332.355469 632.945312 C 330.601562 637.113281 325.785156 638.898438 321.480469 640.253906 C 317.292969 641.5625 313.105469 642.882812 308.933594 644.191406 C 311.582031 650.6875 306.714844 658.574219 299.992188 660.675781 C 293.289062 662.777344 285.808594 660.148438 280.445312 655.601562 C 275.082031 651.050781 271.453125 644.851562 268.027344 638.71875 C 257.78125 640.683594 249.652344 648.953125 245.152344 658.34375 C 240.648438 667.738281 239.191406 678.269531 237.785156 688.585938 C 248.496094 678.5 263.476562 673.09375 278.160156 673.988281 C 262.632812 675.757812 244.472656 679.34375 237.949219 693.53125 C 235.914062 697.980469 235.351562 702.957031 234.921875 707.835938 C 232.601562 733.894531 233.03125 760.203125 236.179688 786.179688 C 247.699219 755.835938 269.617188 729.5625 297.410156 712.746094 C 292.84375 734.570312 286.667969 758.78125 267.695312 770.535156 C 261.472656 774.390625 254.320312 776.554688 248.046875 780.324219 C 241.773438 784.113281 236.144531 790.296875 236.113281 797.605469 C 235.996094 831.78125 233.613281 865.960938 228.976562 899.824219 C 229.558594 884.234375 230.136719 868.65625 230.714844 853.0625 C 230.898438 848.152344 230.996094 842.894531 228.429688 838.695312 C 221.925781 828.078125 205.933594 832.34375 193.585938 830.558594 C 176.933594 828.144531 165.441406 813.164062 155.808594 799.375 C 167.710938 804.449219 181.269531 804.351562 193.320312 809.0625 C 207.160156 814.46875 217.785156 825.648438 227.933594 836.496094 C 220.285156 810.1875 202.410156 787.003906 178.902344 772.917969 C 171.519531 768.484375 163.523438 764.847656 157.332031 758.878906 C 144.800781 746.757812 141.753906 727.015625 128.59375 715.589844 C 145.082031 725.660156 161.933594 736.058594 173.820312 751.273438 C 184.828125 765.378906 191.332031 783.335938 205.453125 794.347656 C 198.519531 781.203125 197.589844 765.011719 203.003906 751.171875 C 197.640625 747.054688 192.261719 742.921875 186.898438 738.804688 C 183.253906 741.964844 176.285156 740.375 175.34375 735.648438 C 174.414062 730.917969 182.097656 727.214844 184.597656 731.332031 C 189.246094 739.019531 195.820312 745.550781 203.566406 750.148438 C 205.949219 745.933594 208.351562 741.714844 210.734375 737.5 C 204.742188 728.585938 195.753906 721.742188 185.554688 718.316406 C 191.035156 718.730469 196.347656 721.144531 200.273438 725.015625 C 192.921875 711.355469 182.859375 695.914062 167.347656 695.351562 C 164.730469 695.25 165.410156 690.523438 167.992188 690.058594 C 170.574219 689.597656 172.875 691.628906 174.714844 693.5 C 176.550781 695.367188 178.851562 697.402344 181.433594 696.9375 C 180.507812 685.496094 166.785156 677.128906 156.171875 681.542969 C 152.746094 682.964844 151.109375 676.1875 154.417969 674.5 C 157.730469 672.8125 161.683594 674.929688 164.550781 677.292969 C 167.414062 679.660156 170.476562 682.503906 174.183594 682.335938 C 175.972656 672.894531 168.835938 663.636719 160.144531 659.535156 C 151.457031 655.433594 141.507812 655.1875 131.90625 654.609375 C 127.003906 654.308594 121.375 653.464844 118.84375 649.285156 C 116.3125 645.082031 121.640625 638.171875 125.382812 641.347656 C 121.742188 637.511719 117.949219 633.425781 116.675781 628.300781 C 115.402344 623.175781 117.636719 616.742188 122.734375 615.304688 C 119.539062 608.855469 125.449219 600.917969 132.449219 599.246094 C 139.453125 597.578125 146.6875 600.171875 153.410156 602.738281 C 158.9375 595.660156 171.566406 600.453125 174.714844 608.871094 C 177.875 617.289062 174.796875 626.613281 171.785156 635.078125 C 168.769531 643.546875 165.789062 652.921875 169.101562 661.269531 C 173.339844 671.984375 177.59375 682.683594 181.832031 693.398438 C 182.078125 686.289062 182.328125 679.195312 182.578125 672.085938 C 182.726562 667.636719 186.054688 661.402344 189.695312 663.949219 C 192.707031 666.066406 190.125 670.648438 187.988281 673.640625 C 180.472656 684.222656 182.03125 700.226562 191.449219 709.15625 C 192.824219 705.570312 190.222656 701.847656 189.117188 698.179688 C 188.007812 694.507812 190.488281 688.984375 194.046875 690.441406 C 190.488281 698.375 192.0625 707.867188 196.101562 715.574219 C 200.140625 723.277344 206.363281 729.578125 212.507812 735.761719 C 216.28125 730.058594 220.054688 724.351562 223.828125 718.648438 C 217.9375 737.398438 221.84375 758.945312 233.960938 774.4375 C 233.464844 738.109375 221.992188 702.941406 210.617188 668.429688 C 209.164062 664 207.671875 659.503906 205.058594 655.648438 C 196.648438 643.28125 192.078125 628.332031 192.160156 613.367188 C 193.898438 620.695312 198.832031 627.191406 205.40625 630.878906 C 200.472656 608.257812 187.445312 587.492188 169.21875 573.203125 C 164.335938 569.386719 158.839844 565.914062 152.664062 565.300781 C 146.242188 564.671875 139.984375 567.203125 133.691406 568.640625 C 127.402344 570.078125 119.984375 570.113281 115.417969 565.550781 C 133.558594 558.851562 154.78125 561.101562 171.105469 571.46875 C 159.019531 556.140625 146.207031 537.703125 150.957031 518.769531 C 160.210938 524.328125 156.074219 538.414062 158.707031 548.863281 C 160.128906 554.535156 163.769531 559.347656 167.332031 563.976562 C 178.519531 578.5625 189.710938 593.144531 200.902344 607.730469 C 185.207031 574.046875 197.292969 529.585938 173.191406 501.324219 C 181.796875 510.933594 187.972656 522.691406 190.984375 535.222656 C 191.699219 524.890625 194.097656 514.6875 198.019531 505.097656 C 194.511719 502.234375 191.53125 498.714844 189.28125 494.792969 C 191.101562 494.976562 192.839844 495.835938 194.097656 497.160156 C 193.335938 490.792969 193.105469 483.550781 197.476562 478.855469 C 201.84375 474.160156 212.125 476.125 211.828125 482.527344 C 213.664062 478.789062 214.527344 474.554688 214.292969 470.386719 C 208.53125 468.171875 205.140625 461.90625 204.527344 455.769531 C 203.914062 449.636719 205.554688 443.519531 207.191406 437.582031 C 219.507812 444.59375 223.398438 462.980469 214.972656 474.355469 C 222.570312 473.382812 227.039062 465.363281 229.210938 458.019531 C 231.359375 450.679688 232.816406 442.445312 238.660156 437.5 C 236.824219 445.652344 235.003906 453.804688 233.164062 461.9375 C 240.167969 454.132812 250.53125 449.4375 261.027344 449.324219 C 247.238281 459.757812 227.191406 462.039062 217.339844 476.226562 C 212.984375 482.507812 211.347656 490.59375 212.902344 498.070312 C 200.207031 506.5 193.484375 521.863281 191.914062 537.027344 C 190.355469 552.1875 193.269531 567.402344 196.167969 582.363281 C 192.722656 537.273438 214.113281 491.058594 250.746094 464.484375 C 257.351562 459.691406 264.832031 454.960938 267.53125 447.253906 C 272.695312 432.488281 288.769531 424.371094 304.148438 421.328125 C 313.632812 419.445312 325.816406 416.648438 327.058594 407.074219 C 326.695312 419.394531 322.738281 431.925781 314.296875 440.90625 C 305.855469 449.886719 292.578125 454.730469 280.707031 451.375 C 301.019531 452.976562 321.234375 437.351562 324.773438 417.308594 C 312.722656 419.507812 300.472656 421.773438 289.597656 427.414062 C 278.722656 433.050781 269.238281 442.660156 266.820312 454.648438 C 287.628906 447.320312 306.648438 435.183594 322.058594 419.476562 C 304.878906 444.808594 270.195312 450.5625 245.878906 469.148438 C 221.792969 487.570312 209.542969 517.199219 199.429688 545.757812 M 151.636719 520.492188 C 150.429688 524.292969 150 528.328125 150.363281 532.296875 C 150.808594 537.191406 152.582031 542.085938 156.023438 545.589844 C 154.1875 540.628906 152.828125 535.488281 151.96875 530.261719 C 152.050781 530.03125 152.398438 530 152.582031 530.164062 C 152.761719 530.328125 152.828125 530.59375 152.863281 530.824219 C 153.804688 535.667969 155.082031 540.449219 156.667969 545.128906 C 156.800781 544.945312 156.917969 544.746094 157.050781 544.566406 C 158.523438 536.265625 156.519531 527.386719 151.636719 520.492188 M 278.339844 650.425781 C 276.96875 645.050781 276.222656 639.527344 276.105469 633.988281 C 276.96875 638.289062 277.8125 642.585938 278.671875 646.886719 C 279.121094 649.101562 279.597656 651.417969 281.054688 653.152344 C 281.984375 654.242188 283.226562 655.019531 284.484375 655.699219 C 287.726562 657.417969 291.285156 658.574219 294.929688 659.089844 C 297.128906 659.386719 299.480469 659.453125 301.46875 658.460938 C 303.453125 657.46875 304.945312 655.167969 304.347656 653.035156 C 304.082031 652.042969 303.421875 651.21875 302.792969 650.425781 C 297.792969 644.140625 292.777344 637.824219 286.949219 632.300781 C 287.726562 632.003906 288.523438 632.597656 289.132812 633.160156 C 295.457031 638.964844 301.316406 645.28125 306.632812 652.011719 C 308.601562 647.992188 308.039062 643.082031 306.035156 639.082031 C 304.050781 635.078125 300.789062 631.855469 297.363281 628.976562 C 296.667969 628.398438 295.90625 627.804688 294.996094 627.769531 C 291.054688 627.65625 287.296875 626.152344 283.457031 625.222656 C 278.921875 624.117188 274.203125 623.769531 269.550781 624.199219 C 273.191406 622.546875 277.398438 622.875 281.355469 623.472656 C 284.035156 623.867188 286.71875 624.382812 289.367188 624.976562 C 291.949219 625.570312 294.695312 626.234375 297.195312 625.324219 C 292.609375 623.96875 287.941406 622.859375 283.226562 622 C 283.058594 621.488281 283.886719 621.289062 284.417969 621.40625 C 287.726562 622.066406 291.039062 622.746094 294.347656 623.40625 C 297.210938 623.984375 300.160156 624.5625 303.007812 623.984375 C 306.863281 623.207031 310.207031 620.214844 311.382812 616.460938 C 312.558594 612.707031 311.53125 608.34375 308.800781 605.515625 C 307.789062 604.472656 306.53125 603.613281 305.109375 603.363281 C 302.195312 602.851562 299.496094 604.902344 297.34375 606.953125 C 295.210938 609.003906 292.875 611.300781 289.914062 611.433594 C 293.96875 608.9375 297.675781 605.863281 300.90625 602.355469 C 289.167969 604.421875 281.335938 616.230469 269.867188 619.503906 C 269.566406 618.578125 270.578125 617.816406 271.421875 617.335938 C 278.773438 613.152344 283.984375 605.414062 285.09375 597.03125 C 282.960938 600.519531 280.3125 603.679688 277.265625 606.40625 C 277.199219 604.96875 278.308594 603.792969 279.300781 602.769531 C 282.363281 599.59375 285.195312 595.941406 286.089844 591.625 C 287.097656 586.746094 285.492188 581.71875 283.339844 577.222656 C 281.917969 574.246094 279.898438 571.105469 276.6875 570.394531 C 272.648438 569.5 268.890625 572.890625 266.917969 576.511719 C 264.15625 581.605469 263.359375 587.507812 262.597656 593.246094 C 262.203125 586.449219 263.90625 579.554688 267.449219 573.75 C 263.65625 574.609375 260.363281 577.386719 258.875 580.976562 C 257.382812 584.546875 257.714844 588.847656 259.75 592.136719 C 262.167969 596.054688 260.777344 601.511719 263.375 605.316406 C 264.550781 607.035156 264.15625 609.367188 263.359375 611.269531 C 262.546875 613.171875 261.355469 614.957031 260.976562 616.988281 C 260.59375 619.023438 261.339844 621.519531 263.308594 622.199219 C 265.460938 622.941406 267.632812 623.703125 269.5 624.976562 C 271.371094 626.25 272.945312 628.152344 273.34375 630.382812 C 273.738281 632.617188 272.695312 635.164062 270.609375 636.070312 C 269.652344 636.484375 269.714844 637.859375 270.015625 638.867188 C 271.222656 643.097656 273.539062 647.019531 276.6875 650.109375 C 277.183594 650.554688 278.011719 650.96875 278.339844 650.425781 M 273.175781 764.566406 C 275.097656 763.128906 276.96875 761.589844 278.441406 759.6875 C 281.585938 755.65625 282.628906 750.414062 283.574219 745.386719 C 279.765625 747.121094 275.957031 748.875 272.148438 750.609375 C 271.886719 749.835938 272.777344 749.1875 273.539062 748.84375 C 278.425781 746.625 283.441406 743.949219 286.238281 739.367188 C 287.941406 736.574219 288.65625 733.300781 289.664062 730.171875 C 291.335938 724.980469 293.851562 720.070312 297.097656 715.6875 C 296.714844 715.574219 296.300781 715.738281 295.953125 715.902344 C 282.644531 721.988281 271.570312 732.242188 262.597656 743.816406 C 253.625 755.375 246.574219 768.289062 239.570312 781.136719 C 239.308594 781.632812 239.027344 782.242188 239.324219 782.722656 C 245.976562 772.949219 255.511719 765.164062 266.421875 760.582031 C 266.257812 761.671875 265.132812 762.300781 264.136719 762.796875 C 255.183594 767.261719 247.335938 773.925781 241.476562 782.042969 C 246.277344 779.664062 251.09375 777.265625 255.894531 774.886719 C 258.046875 773.808594 260.199219 772.753906 262.300781 771.59375 C 266.089844 769.527344 269.734375 767.179688 273.175781 764.566406 M 218.847656 767.34375 C 216.199219 776.125 207.605469 782.738281 206.925781 791.898438 C 206.8125 793.453125 206.945312 795.058594 207.640625 796.445312 C 208.152344 797.488281 208.929688 798.347656 209.707031 799.226562 C 220.585938 811.558594 228.464844 826.507812 232.535156 842.429688 C 234.191406 826.261719 234.804688 809.972656 234.074219 793.734375 C 234.007812 792.363281 233.945312 790.992188 233.5625 789.667969 C 233.214844 788.492188 232.636719 787.402344 232.039062 786.34375 C 228.296875 779.582031 223.863281 773.214844 218.847656 767.34375 M 310.554688 599.082031 C 310.457031 598.421875 311.132812 597.925781 311.714844 597.578125 C 313.882812 596.253906 315.785156 594.46875 317.257812 592.402344 C 318.914062 590.085938 320.039062 587.160156 319.34375 584.398438 C 318.699219 581.835938 316.566406 579.867188 314.164062 578.761719 C 311.765625 577.652344 309.113281 577.273438 306.5 576.910156 C 305.902344 576.824219 305.09375 576.875 304.960938 577.472656 C 304.03125 581.605469 301.964844 585.472656 299.035156 588.550781 C 300.921875 584.582031 302.808594 580.628906 304.695312 576.660156 C 298.769531 576.148438 293.171875 579.15625 287.992188 582.066406 C 287.578125 582.300781 287.097656 582.679688 287.230469 583.140625 C 288.191406 586.316406 288.15625 589.789062 287.132812 592.949219 C 286.898438 593.660156 286.617188 594.371094 286.484375 595.113281 C 286.351562 595.890625 286.386719 596.667969 286.371094 597.460938 C 286.269531 601.496094 284.566406 605.367188 282.183594 608.625 C 279.796875 611.878906 276.734375 614.574219 273.589844 617.105469 C 275.34375 616.246094 277.050781 615.253906 278.671875 614.144531 C 282.296875 611.683594 285.507812 608.65625 289.050781 606.058594 C 292.59375 603.464844 296.582031 601.265625 300.9375 600.800781 C 301.898438 600.703125 303.238281 601.015625 303.207031 601.976562 C 305.441406 601.578125 307.875 602.570312 309.214844 604.40625 C 309.695312 605.066406 310.65625 605.21875 311.417969 604.96875 C 312.175781 604.703125 312.789062 604.125 313.320312 603.515625 C 315.421875 601.066406 316.613281 597.875 316.648438 594.667969 C 314.957031 596.535156 312.871094 598.058594 310.554688 599.082031 M 255.347656 613.898438 C 254.074219 610.9375 250.429688 609.550781 247.253906 610.027344 C 244.074219 610.507812 241.308594 612.507812 239.007812 614.757812 C 236.378906 617.335938 234.074219 620.429688 233.25 624.015625 C 237.253906 618.808594 243.328125 615.222656 249.835938 614.230469 C 249.6875 614.921875 248.875 615.203125 248.195312 615.386719 C 243.859375 616.59375 239.804688 618.824219 236.460938 621.851562 C 235.367188 622.84375 234.339844 623.917969 233.5625 625.160156 C 231.542969 628.398438 231.34375 632.417969 231.210938 636.238281 C 235.5 630.203125 241.691406 625.539062 248.675781 623.089844 C 248.609375 623.835938 247.816406 624.265625 247.121094 624.578125 C 241.871094 626.910156 237.171875 630.417969 233.445312 634.78125 C 236.941406 633.308594 240.996094 634.367188 244.390625 636.039062 C 247.78125 637.707031 250.910156 639.992188 254.519531 641.132812 C 255.859375 641.5625 257.714844 641.59375 258.261719 640.289062 C 259.617188 636.996094 262.003906 634.121094 265 632.1875 C 263.625 633.9375 262.25 635.691406 260.875 637.445312 C 260.097656 638.4375 259.269531 639.59375 259.453125 640.851562 C 260.148438 641.710938 261.523438 641.148438 262.433594 640.535156 C 263.972656 639.511719 265.511719 638.484375 267.050781 637.460938 C 268.492188 636.5 269.949219 635.527344 270.992188 634.152344 C 272.035156 632.78125 272.628906 630.945312 272.066406 629.308594 C 271.222656 626.84375 268.34375 625.886719 265.976562 624.8125 C 261.289062 622.628906 257.417969 618.675781 255.347656 613.898438 M 186.699219 775.214844 C 184.761719 772.6875 183.6875 769.625 182.410156 766.699219 C 177.429688 755.222656 169.234375 745.171875 159.003906 737.960938 C 150.644531 732.074219 140.792969 727.890625 134.386719 719.9375 C 137.449219 724.601562 140.511719 729.28125 143.160156 734.175781 C 146.089844 739.597656 148.523438 745.304688 151.820312 750.511719 C 155.113281 755.71875 159.417969 760.515625 165.03125 763.09375 C 172.5625 766.550781 179.8125 770.601562 186.699219 775.214844 M 213.152344 775.148438 C 216.828125 770.816406 218.183594 764.996094 218.746094 759.359375 C 219.90625 747.816406 218.25 736.011719 220.585938 724.632812 C 218.679688 728.46875 216.480469 732.15625 214.011719 735.648438 C 212.65625 737.566406 211.199219 739.433594 209.890625 741.382812 C 199.957031 756.132812 198.1875 776.027344 205.386719 792.28125 C 206.316406 785.996094 209.046875 779.996094 213.152344 775.148438 M 183.667969 813.628906 C 194.164062 816.636719 204.261719 821.101562 213.550781 826.839844 C 209.972656 821.035156 204.777344 816.257812 198.683594 813.179688 C 196.480469 812.074219 194.179688 811.179688 191.894531 810.285156 C 189.910156 809.527344 187.921875 808.75 185.886719 808.152344 C 177.59375 805.773438 168.589844 806.417969 160.492188 803.441406 C 164.566406 809.144531 169.199219 814.4375 174.300781 819.214844 C 176.121094 820.9375 178.023438 822.589844 180.175781 823.894531 C 183.121094 825.699219 186.449219 826.773438 189.8125 827.582031 C 197.476562 829.402344 205.472656 829.816406 213.285156 828.773438 C 205.6875 823.085938 196.679688 819.679688 187.890625 816.140625 C 186.351562 815.511719 184.761719 814.851562 183.667969 813.628906 M 259.355469 506.800781 C 260.976562 506.699219 262.648438 506.632812 264.1875 507.128906 C 265.742188 507.625 267.167969 508.699219 268.824219 508.734375 C 270.578125 508.75 272.132812 507.542969 273.160156 506.121094 C 274.203125 504.699219 274.882812 503.0625 275.875 501.625 C 278.507812 497.835938 283.457031 495.820312 287.992188 496.679688 C 288.871094 496.84375 289.929688 497.058594 290.558594 496.429688 C 289.300781 496.25 288.027344 496.066406 286.765625 495.902344 C 277.945312 494.695312 269.003906 493.835938 260.164062 494.859375 C 245.480469 496.546875 231.460938 503.542969 221.3125 514.257812 C 226.296875 511.230469 232.304688 509.925781 238.113281 510.617188 C 242.734375 511.164062 247.171875 512.933594 251.789062 513.398438 C 256.425781 513.859375 261.722656 512.636719 264.171875 508.683594 C 257.25 507.941406 250.214844 508.320312 243.414062 509.777344 C 242.914062 509.328125 243.777344 508.667969 244.4375 508.550781 C 249.371094 507.691406 254.355469 507.113281 259.355469 506.800781 M 159.351562 652.90625 C 157.960938 650.339844 157.5625 647.25 158.273438 644.421875 C 159.796875 645.679688 161.304688 646.917969 162.828125 648.175781 C 164.21875 645.296875 164.019531 641.859375 162.992188 638.832031 C 161.96875 635.808594 160.164062 633.113281 158.390625 630.449219 C 158.523438 630.070312 159.085938 630.25 159.402344 630.515625 C 161.769531 632.5 163.621094 635.078125 164.765625 637.957031 C 165.707031 633.988281 165.113281 629.6875 163.140625 626.117188 C 161.171875 622.546875 157.84375 619.75 153.988281 618.429688 C 152.730469 618 151.390625 617.71875 150.066406 617.800781 C 146.9375 618.015625 144.289062 620.214844 142.285156 622.613281 C 142.085938 622.84375 141.886719 623.109375 141.871094 623.421875 C 141.855469 623.703125 142.019531 623.96875 142.167969 624.199219 C 144.203125 627.488281 146.257812 630.78125 148.292969 634.070312 C 146.242188 631.441406 144.1875 628.796875 142.136719 626.167969 C 141.523438 625.375 140.878906 624.5625 139.984375 624.082031 C 139.089844 623.621094 137.878906 623.585938 137.167969 624.296875 C 137.316406 630.597656 140.28125 636.601562 144.453125 641.347656 C 148.609375 646.109375 153.90625 649.714844 159.351562 652.90625 M 308.503906 640.402344 C 308.703125 640.917969 308.933594 641.480469 309.445312 641.710938 C 309.644531 641.792969 309.859375 641.824219 310.074219 641.84375 C 313.503906 642.15625 317.042969 641.164062 319.824219 639.113281 C 317.390625 636.683594 314.511719 634.683594 311.367188 633.242188 C 310.722656 632.945312 309.925781 632.382812 310.222656 631.722656 C 313.550781 632.796875 316.664062 634.601562 319.261719 636.929688 C 320.933594 638.4375 323.601562 638.320312 325.570312 637.246094 C 327.539062 636.171875 328.980469 634.351562 330.320312 632.566406 C 331.59375 630.863281 332.902344 628.628906 331.910156 626.746094 C 331.445312 625.835938 330.535156 625.257812 329.640625 624.746094 C 324.363281 621.785156 318.1875 620.445312 312.144531 620.925781 C 312.425781 619.867188 313.785156 619.601562 314.890625 619.585938 C 318.617188 619.535156 322.34375 620.050781 325.917969 621.074219 C 325.207031 618.660156 323.121094 616.890625 320.867188 615.765625 C 318.617188 614.640625 316.152344 614.03125 313.832031 613.085938 C 313.089844 616.277344 311.746094 619.386719 309.527344 621.800781 C 307.3125 624.214844 304.132812 625.851562 300.855469 625.785156 C 300.144531 625.769531 299.429688 625.6875 298.753906 625.871094 C 298.074219 626.050781 297.429688 626.613281 297.429688 627.324219 C 302.394531 630.351562 306.367188 634.996094 308.503906 640.402344 M 247.085938 603.761719 C 239.324219 597.429688 234.273438 587.871094 233.445312 577.902344 C 232.253906 580.183594 231.292969 582.582031 230.566406 585.058594 C 229.839844 587.523438 229.359375 590.234375 230.269531 592.632812 C 232.570312 598.683594 241.9375 599.460938 244.304688 605.480469 C 244.621094 606.273438 244.785156 607.117188 245.25 607.828125 C 245.714844 608.539062 246.605469 609.070312 247.402344 608.789062 C 249.621094 607.976562 252.152344 608.773438 254.023438 610.226562 C 255.878906 611.683594 257.183594 613.699219 258.460938 615.683594 C 255.316406 607.398438 253.925781 598.453125 254.386719 589.589844 C 254.570312 586.085938 251.441406 582.746094 247.933594 582.761719 C 248.527344 586.152344 249.125 589.558594 249.71875 592.949219 C 250.101562 595.082031 250.480469 597.246094 251.375 599.230469 C 252.152344 600.984375 253.363281 602.71875 253.0625 604.621094 C 250.730469 600.453125 249.105469 595.875 248.296875 591.160156 C 247.933594 589.09375 247.714844 586.929688 246.691406 585.09375 C 245.730469 583.355469 244.125 582.066406 242.453125 581.007812 C 239.953125 579.40625 237.1875 578.214844 234.308594 577.488281 C 234.722656 583.257812 236.625 588.914062 239.789062 593.742188 C 242.039062 597.179688 244.933594 600.222656 247.085938 603.761719 M 155.992188 617.105469 C 157.082031 613.054688 156.039062 608.492188 153.308594 605.316406 C 150.5625 602.140625 146.207031 600.421875 142.035156 600.902344 C 143.277344 602.40625 144.519531 603.910156 145.761719 605.414062 C 145.828125 605.714844 145.429688 605.929688 145.148438 605.84375 C 144.867188 605.761719 144.667969 605.496094 144.484375 605.265625 C 142.863281 603.214844 140.265625 602.140625 137.664062 601.828125 C 135.066406 601.511719 132.449219 601.875 129.851562 602.242188 C 128.179688 602.472656 126.425781 602.753906 125.152344 603.84375 C 123.761719 605.050781 123.246094 607.035156 123.394531 608.871094 C 123.546875 610.707031 124.257812 612.441406 124.96875 614.144531 C 125.167969 614.609375 125.449219 615.136719 125.945312 615.203125 C 130.066406 615.632812 133.957031 617.933594 136.339844 621.324219 C 137.152344 622.480469 138.972656 622.445312 140.199219 621.71875 C 141.421875 620.992188 142.269531 619.785156 143.277344 618.792969 C 146.570312 615.601562 152 614.890625 155.992188 617.105469 M 205.058594 639.230469 C 212.671875 644.289062 218.648438 651.78125 221.890625 660.328125 C 223.035156 655.566406 221.496094 650.457031 218.761719 646.375 C 216.03125 642.289062 212.226562 639.082031 208.382812 636.023438 C 204.542969 632.964844 200.605469 629.953125 197.492188 626.167969 C 196.152344 624.53125 194.957031 622.746094 193.980469 620.875 C 193.4375 625.488281 194.910156 630.085938 196.347656 634.5 C 197.855469 639.128906 199.394531 643.792969 201.894531 647.960938 C 204.394531 652.128906 208.003906 655.816406 212.554688 657.519531 C 216.097656 658.839844 219.175781 661.320312 221.230469 664.480469 C 219.640625 654.425781 212.175781 646.488281 205.058594 639.230469 M 129.585938 635.246094 C 129.257812 635.691406 128.5625 635.328125 128.148438 634.964844 C 123.710938 631.011719 119.007812 626.613281 118 620.761719 C 116.855469 623.703125 117.453125 627.09375 118.925781 629.886719 C 120.398438 632.683594 122.652344 634.964844 124.953125 637.128906 C 126.210938 638.320312 127.519531 639.511719 129.105469 640.15625 C 135.53125 642.75 141.96875 645.347656 148.394531 647.960938 C 140.644531 642.488281 135.710938 633.226562 135.496094 623.753906 C 135.480469 623.007812 134.984375 622.378906 134.488281 621.835938 C 132.101562 619.289062 128.84375 617.570312 125.398438 617.023438 C 123.015625 616.644531 119.902344 617.320312 119.40625 619.683594 C 119.175781 620.761719 119.589844 621.867188 120.035156 622.859375 C 122.203125 627.65625 125.5 631.9375 129.585938 635.246094 M 169.101562 636.867188 C 169.085938 634.898438 168.621094 632.914062 169.085938 631.011719 C 169.285156 630.167969 169.679688 629.375 169.894531 628.53125 C 170.722656 625.355469 169.152344 622.050781 169.132812 618.757812 C 169.117188 615.15625 170.972656 611.714844 170.742188 608.109375 C 170.523438 604.753906 168.257812 601.578125 165.09375 600.40625 C 161.933594 599.230469 158.058594 600.222656 155.972656 602.867188 C 155.3125 603.710938 154.832031 604.96875 155.476562 605.828125 C 157.546875 608.625 158.492188 612.226562 158.027344 615.667969 C 157.863281 616.925781 157.695312 618.5625 158.839844 619.121094 C 163.703125 621.519531 165.808594 627.457031 165.90625 632.878906 C 166.007812 638.304688 164.617188 643.679688 164.664062 649.101562 C 166.867188 645.296875 169.132812 641.265625 169.101562 636.867188 M 252.121094 579.886719 C 251.40625 580.8125 251.988281 582.167969 252.765625 583.027344 C 253.542969 583.886719 254.570312 584.664062 254.835938 585.789062 C 257.035156 580.316406 260.511719 574.710938 266.15625 572.957031 C 268.195312 572.328125 269.832031 570.855469 271.6875 569.796875 C 273.523438 568.738281 275.90625 568.09375 277.746094 569.171875 C 278.175781 569.417969 278.523438 568.738281 278.554688 568.242188 C 278.707031 565.914062 278.804688 563.546875 278.339844 561.25 C 277.878906 558.953125 276.769531 556.71875 274.882812 555.332031 C 271.6875 552.980469 266.917969 553.726562 263.875 556.273438 C 260.828125 558.820312 259.253906 562.738281 258.542969 566.640625 C 257.832031 570.542969 257.847656 574.542969 257.351562 578.480469 C 257.316406 578.761719 257.136719 579.140625 256.871094 579.042969 C 256.820312 577.339844 256.753906 575.652344 256.707031 573.949219 C 255.164062 575.949219 253.644531 577.917969 252.121094 579.886719 M 157.695312 653.878906 C 154.085938 651.152344 149.75 649.582031 145.496094 648.058594 C 142.648438 647.035156 139.800781 646.027344 136.953125 645 C 134.089844 643.976562 131.210938 642.949219 128.195312 642.488281 C 126.324219 642.207031 124.339844 642.15625 122.601562 642.902344 C 120.863281 643.644531 119.421875 645.347656 119.488281 647.25 C 119.570312 650.175781 122.816406 651.894531 125.648438 652.625 C 130.695312 653.929688 136.011719 654.160156 141.160156 653.285156 C 143.722656 652.855469 146.355469 652.144531 148.871094 652.789062 C 146.605469 653.21875 144.320312 653.648438 142.050781 654.078125 C 147.21875 654.972656 152.546875 654.90625 157.695312 653.878906 M 200.074219 480.011719 C 196.894531 484.90625 197.109375 491.207031 197.839844 496.992188 C 198.121094 499.226562 198.46875 501.457031 198.867188 503.691406 C 202.625 498.117188 206.414062 492.480469 208.75 486.164062 C 209.359375 484.507812 209.875 482.757812 209.707031 481.003906 C 209.542969 479.25 208.566406 477.464844 206.945312 476.804688 C 204.394531 475.761719 201.5625 477.714844 200.074219 480.011719 M 213.878906 454.863281 C 214.179688 456.234375 214.410156 457.605469 214.65625 458.980469 C 215.054688 461.292969 215.453125 463.59375 215.851562 465.90625 C 218.085938 461.441406 218.351562 456.085938 216.742188 451.355469 C 215.136719 446.644531 211.710938 442.59375 207.40625 440.0625 C 207.339844 445.703125 206.859375 451.324219 205.949219 456.894531 C 205.207031 461.425781 208.832031 465.875 213.21875 467.246094 C 213.367188 467.296875 213.53125 467.347656 213.679688 467.28125 C 213.964844 467.164062 213.980469 466.785156 213.945312 466.484375 C 213.117188 458.78125 212.273438 450.976562 209.460938 443.75 C 209.34375 443.4375 209.394531 442.890625 209.726562 442.988281 C 211.59375 446.757812 212.984375 450.761719 213.878906 454.863281 M 218.449219 691.925781 C 222.140625 684.074219 222.953125 674.914062 220.699219 666.53125 C 220.136719 664.460938 218.597656 662.792969 216.84375 661.570312 C 215.089844 660.34375 213.117188 659.484375 211.230469 658.460938 C 210.769531 658.757812 210.835938 659.4375 210.949219 659.980469 C 213.203125 670.679688 215.699219 681.34375 218.449219 691.925781 M 220.46875 751.503906 C 220.417969 756.449219 219.957031 761.375 219.09375 766.238281 C 224.707031 772.191406 229.558594 778.851562 233.480469 786.011719 C 233.878906 784.242188 233.84375 782.375 233.414062 780.605469 C 233.066406 779.21875 232.46875 777.910156 231.890625 776.621094 C 228.066406 768.253906 224.257812 759.886719 220.46875 751.503906 M 261.074219 601.960938 C 260.332031 603.976562 259.46875 605.945312 258.476562 607.847656 C 258.128906 605.992188 259.355469 604.242188 260.03125 602.488281 C 260.875 600.324219 260.894531 597.84375 260.097656 595.660156 C 259.453125 593.890625 258.292969 592.320312 257.632812 590.566406 C 256.773438 588.300781 256.738281 585.738281 257.550781 583.472656 C 255.097656 588.121094 255.199219 593.660156 255.792969 598.867188 C 256.539062 605.414062 257.964844 611.878906 260.015625 618.132812 C 260.3125 615.386719 261.871094 612.921875 262.449219 610.226562 C 263.046875 607.417969 262.550781 604.40625 261.074219 601.960938 M 234.027344 605.730469 C 236.3125 608.128906 239.457031 610.128906 242.75 609.679688 C 243.230469 609.617188 243.726562 609.484375 244.007812 609.085938 C 244.472656 608.425781 244.023438 607.515625 243.542969 606.871094 C 241.210938 603.695312 238.113281 601.082031 234.589844 599.3125 C 232.636719 598.339844 231.0625 596.636719 230.269531 594.601562 C 230.21875 594.46875 230.152344 594.304688 230.003906 594.269531 C 229.753906 594.203125 229.621094 594.566406 229.621094 594.816406 C 229.558594 597.972656 230.535156 601.164062 232.371094 603.730469 C 232.867188 604.457031 233.429688 605.101562 234.027344 605.730469 M 139.703125 565.203125 C 139.75 565.152344 139.800781 565.085938 139.816406 565.003906 C 139.851562 564.789062 139.554688 564.6875 139.320312 564.6875 C 138.078125 564.671875 136.855469 564.835938 135.628906 565.035156 C 132.980469 565.464844 130.367188 566.09375 127.816406 566.871094 C 127.632812 566.691406 127.433594 566.507812 127.253906 566.324219 C 131.375 564.492188 135.894531 563.53125 140.414062 563.566406 C 140.726562 563.566406 141.140625 563.21875 140.859375 563.085938 C 138.179688 561.8125 135.066406 561.429688 132.152344 562.011719 C 131.078125 562.226562 130.019531 562.574219 128.976562 562.917969 C 125.78125 563.996094 122.601562 565.167969 119.457031 566.410156 C 121.261719 566.972656 123.082031 567.484375 124.902344 567.929688 C 127.847656 568.640625 130.945312 569.203125 133.890625 568.542969 C 136.125 568.046875 138.164062 566.871094 139.703125 565.203125 M 170.808594 614.292969 C 170.34375 616.34375 169.863281 618.460938 170.128906 620.546875 C 170.34375 622.164062 170.988281 623.703125 171.136719 625.324219 C 171.5 629.257812 168.984375 633.328125 170.441406 636.996094 C 172.761719 631.027344 173.953125 624.644531 173.933594 618.246094 C 173.933594 614.808594 173.570312 611.300781 172.214844 608.144531 C 171.734375 610.210938 171.269531 612.246094 170.808594 614.292969 M 229.773438 462.914062 C 230.101562 462.75 230.351562 462.453125 230.566406 462.152344 C 231.34375 461.144531 232.121094 460.136719 232.667969 458.996094 C 233.296875 457.707031 233.644531 456.285156 233.960938 454.878906 C 234.835938 450.925781 235.582031 446.925781 236.160156 442.921875 C 233.84375 446.164062 231.476562 449.539062 230.699219 453.441406 C 230.5 454.433594 230.417969 455.457031 230.316406 456.464844 C 230.136719 458.617188 229.953125 460.765625 229.773438 462.914062 M 251.191406 452.148438 C 250.015625 452.316406 248.84375 452.398438 247.699219 452.679688 C 244.238281 453.539062 241.425781 455.988281 238.761719 458.351562 C 238.5625 458.53125 238.332031 458.8125 238.480469 459.046875 C 241.542969 458.367188 244.539062 457.425781 247.433594 456.234375 C 250.464844 454.976562 253.410156 453.421875 255.792969 451.175781 C 254.289062 451.621094 252.75 451.933594 251.191406 452.148438 M 198.714844 479.167969 C 195.871094 481.320312 195.175781 485.222656 194.742188 488.757812 C 194.628906 489.75 194.511719 490.742188 194.527344 491.734375 C 194.578125 493.6875 195.140625 495.589844 195.703125 497.457031 C 195.785156 497.722656 195.871094 497.984375 195.953125 498.25 C 196.285156 499.359375 196.648438 500.515625 197.476562 501.34375 C 197.195312 499.390625 196.929688 497.441406 196.714844 495.488281 C 196.332031 492.214844 196.066406 488.890625 196.695312 485.667969 C 197.175781 483.21875 198.203125 480.886719 199.660156 478.871094 C 199.328125 478.773438 198.980469 478.953125 198.714844 479.167969 M 208.863281 499.226562 C 209.03125 499.09375 209.144531 498.910156 209.261719 498.730469 C 210.585938 496.582031 211.8125 494.316406 212.339844 491.835938 C 212.65625 490.378906 212.722656 488.875 212.554688 487.386719 C 212.523438 487.15625 212.421875 486.875 212.191406 486.90625 C 212.007812 486.925781 211.925781 487.15625 211.894531 487.335938 C 211.066406 491.570312 208.914062 495.539062 205.800781 498.53125 C 205.273438 499.042969 204.660156 499.707031 204.890625 500.417969 C 205.984375 500.117188 207.078125 499.835938 208.152344 499.539062 C 208.402344 499.457031 208.664062 499.390625 208.863281 499.226562 M 179.429688 730.917969 C 179.300781 730.800781 179.148438 730.6875 178.96875 730.6875 C 178.800781 730.6875 178.652344 730.785156 178.519531 730.882812 C 176.914062 732.074219 176.1875 734.355469 176.816406 736.257812 C 177.113281 737.183594 177.941406 737.914062 178.886719 738.109375 C 179.480469 738.242188 180.191406 738.109375 180.507812 737.597656 C 181.730469 735.464844 181.253906 732.539062 179.429688 730.917969 M 159.699219 647.382812 C 159.46875 647.367188 159.402344 647.695312 159.433594 647.910156 C 159.566406 648.902344 159.863281 649.878906 160.261719 650.804688 C 161.335938 653.300781 163.140625 655.484375 165.394531 657.003906 C 165.558594 657.121094 165.757812 657.238281 165.957031 657.203125 C 165.410156 655.402344 164.847656 653.597656 164.300781 651.796875 C 164.183594 651.433594 164.085938 651.070312 163.886719 650.753906 C 163.539062 650.125 162.925781 649.679688 162.347656 649.265625 C 161.535156 648.671875 160.707031 648.078125 159.898438 647.480469 C 159.847656 647.429688 159.78125 647.382812 159.699219 647.382812 M 279.21875 569.550781 C 280.972656 570.757812 282.511719 572.296875 283.722656 574.066406 C 284.25 570.542969 282.960938 566.804688 280.378906 564.34375 C 280.210938 564.191406 280.03125 564.027344 279.816406 563.996094 C 279.597656 563.960938 279.335938 564.144531 279.351562 564.359375 C 279.402344 564.921875 279.46875 565.464844 279.515625 566.027344 C 279.597656 566.839844 279.683594 567.714844 279.316406 568.441406 C 279.136719 568.824219 278.886719 569.320312 279.21875 569.550781 M 183.71875 732.207031 C 183.039062 731.828125 182.363281 731.445312 181.667969 731.066406 C 181.535156 731.414062 181.699219 731.777344 181.832031 732.125 C 182.726562 734.242188 182.578125 736.753906 181.46875 738.753906 C 181.335938 739.003906 181.203125 739.351562 181.433594 739.515625 C 181.515625 739.582031 181.648438 739.582031 181.75 739.582031 C 182.773438 739.597656 183.917969 739.417969 184.5625 738.625 C 184.792969 738.324219 184.945312 737.960938 185.078125 737.613281 C 185.65625 736.011719 185.902344 733.976562 184.644531 732.835938 C 184.363281 732.570312 184.035156 732.390625 183.71875 732.207031 M 203.203125 500.25 C 204.476562 498.449219 205.800781 496.695312 207.207031 494.992188 C 209.773438 491.882812 211.199219 487.882812 211.164062 483.847656 C 211.164062 483.566406 211.066406 483.1875 210.785156 483.171875 C 210.453125 483.152344 210.355469 483.617188 210.355469 483.964844 C 210.355469 485.320312 209.839844 486.625 209.292969 487.867188 C 207.65625 491.636719 205.6875 495.257812 203.417969 498.679688 C 203.101562 499.160156 202.804688 499.835938 203.203125 500.25 M 201.167969 504.085938 C 201.84375 503.824219 202.589844 503.839844 203.320312 503.789062 C 204.839844 503.691406 206.332031 503.292969 207.707031 502.632812 C 209.0625 501.972656 210.289062 501.046875 211.496094 500.117188 C 211.726562 499.9375 211.894531 499.492188 211.613281 499.457031 C 211.5625 499.457031 211.511719 499.457031 211.464844 499.472656 C 209.328125 500.070312 207.207031 500.699219 205.089844 501.359375 C 203.550781 501.839844 201.996094 502.351562 200.734375 503.34375 C 200.488281 503.542969 200.257812 503.90625 200.488281 504.121094 C 200.671875 504.300781 200.933594 504.1875 201.167969 504.085938 M 165.542969 658.707031 C 165.824219 658.609375 165.59375 658.195312 165.34375 658.046875 C 163.953125 657.152344 162.5625 656.277344 161.1875 655.386719 C 160.890625 655.1875 160.578125 654.988281 160.246094 654.871094 C 158.886719 654.359375 157.414062 655.003906 156.105469 655.632812 C 157.53125 656.9375 159.5 657.402344 161.386719 657.832031 C 162.710938 658.128906 164.019531 658.425781 165.34375 658.707031 C 165.394531 658.707031 165.460938 658.726562 165.542969 658.707031 M 156.503906 674.335938 C 156.105469 674.25 155.496094 674.449219 155.691406 674.796875 C 155.792969 674.980469 156.058594 674.960938 156.273438 674.996094 C 157.148438 675.113281 157.480469 676.1875 157.597656 677.046875 C 157.746094 678.039062 157.878906 679.128906 157.347656 679.988281 C 157.230469 680.171875 157.082031 680.402344 157.183594 680.601562 C 157.265625 680.78125 157.515625 680.816406 157.710938 680.800781 C 158.738281 680.734375 159.714844 680.089844 160.164062 679.164062 C 160.625 678.238281 160.542969 677.078125 159.980469 676.21875 C 159.253906 675.09375 157.84375 674.632812 156.503906 674.335938 M 184.296875 666.976562 C 183.667969 667.652344 183.71875 668.777344 184.25 669.539062 C 184.777344 670.300781 185.707031 670.714844 186.617188 670.84375 C 187.34375 670.960938 188.140625 670.894531 188.71875 670.449219 C 189.296875 670 189.496094 669.042969 188.964844 668.515625 C 188.898438 668.449219 188.816406 668.382812 188.734375 668.347656 C 188.4375 668.199219 188.074219 668.265625 187.742188 668.265625 C 186.996094 668.265625 186.269531 667.867188 185.835938 667.257812 C 185.6875 667.042969 185.574219 666.792969 185.339844 666.679688 C 185.011719 666.496094 184.5625 666.679688 184.296875 666.976562 M 154.1875 679.609375 C 154.75 680.089844 155.609375 680.320312 156.222656 679.890625 C 156.785156 679.476562 156.886719 678.683594 156.867188 677.972656 C 156.851562 677.492188 156.820312 677.011719 156.636719 676.582031 C 156.320312 675.804688 155.578125 675.226562 154.75 675.113281 C 154.515625 675.078125 154.285156 675.226562 154.105469 675.390625 C 152.945312 676.46875 152.996094 678.566406 154.1875 679.609375 M 220.882812 734.488281 C 221.347656 732.851562 221.792969 731.214844 222.257812 729.578125 C 222.636719 728.238281 222.605469 726.816406 222.570312 725.429688 C 222.554688 724.765625 222.488281 723.988281 221.925781 723.625 C 221.164062 727.113281 220.652344 730.667969 220.417969 734.242188 C 220.402344 734.472656 220.535156 734.804688 220.734375 734.703125 C 220.832031 734.671875 220.867188 734.570312 220.882812 734.488281 M 169.53125 690.851562 C 169.300781 690.785156 169.050781 690.753906 168.851562 690.871094 C 168.65625 690.984375 168.554688 691.300781 168.722656 691.449219 C 169.828125 692.488281 170.113281 694.277344 169.398438 695.613281 C 169.316406 695.78125 169.480469 695.980469 169.664062 696.011719 C 169.847656 696.027344 170.027344 695.945312 170.175781 695.847656 C 171.003906 695.367188 171.914062 694.753906 172 693.796875 C 172.03125 693.480469 171.964844 693.167969 171.847656 692.886719 C 171.453125 691.894531 170.558594 691.132812 169.53125 690.851562 M 188.222656 667.15625 C 188.652344 667.089844 189.050781 666.925781 189.398438 666.660156 C 189.894531 666.28125 189.511719 665.488281 189.066406 665.074219 C 188.402344 664.445312 187.378906 663.933594 186.597656 664.429688 C 185.96875 664.828125 185.871094 665.785156 186.285156 666.398438 C 186.664062 666.992188 187.476562 667.257812 188.222656 667.15625 M 196.980469 503.242188 C 197.210938 503.441406 197.625 503.609375 197.773438 503.34375 C 196.183594 500.894531 194.3125 498.613281 192.210938 496.5625 C 191.996094 496.367188 191.746094 496.152344 191.464844 496.167969 C 191.167969 496.183594 190.953125 496.613281 191.183594 496.777344 C 193.550781 498.464844 194.792969 501.324219 196.980469 503.242188 M 168.339844 695.417969 C 169.234375 694.507812 169.132812 692.820312 168.125 692.042969 C 167.761719 691.761719 167.214844 692.09375 166.964844 692.488281 C 166.453125 693.300781 166.46875 694.457031 167.113281 695.183594 C 167.414062 695.53125 168.007812 695.746094 168.339844 695.417969 M 190.042969 692.769531 C 190.308594 693.25 190.96875 693.332031 191.5 693.25 C 192.328125 693.132812 193.105469 692.738281 193.71875 692.175781 C 193.503906 691.597656 192.824219 691.332031 192.210938 691.234375 C 191.664062 691.132812 191.070312 691.101562 190.570312 691.367188 C 190.09375 691.628906 189.777344 692.292969 190.042969 692.769531 M 189.296875 694.308594 C 189.578125 695.117188 190.40625 695.714844 191.265625 695.714844 C 192.128906 695.714844 192.972656 695.136719 193.253906 694.324219 C 193.269531 694.277344 193.285156 694.210938 193.285156 694.160156 C 193.253906 693.960938 192.988281 693.929688 192.773438 693.945312 C 191.613281 694.078125 190.457031 694.191406 189.296875 694.308594 M 166.417969 660.046875 C 166.570312 660.296875 167 660.296875 167.148438 660.046875 C 167 659.816406 166.570312 659.816406 166.417969 660.046875 Z M 166.417969 660.046875 " fill-opacity="1" fill-rule="nonzero"/></g></svg>